<?xml version="1.0" encoding="UTF-8"?>
<svg id="Layer_1" xmlns="http://www.w3.org/2000/svg" version="1.1" viewBox="0 0 167 133">
  <!-- Generator: Adobe Illustrator 29.6.1, SVG Export Plug-In . SVG Version: 2.1.1 Build 9)  -->
  <defs>
    <style>
      .st0 {
        fill: #0361d0;
      }

      .st1 {
        fill: #162141;
      }

      .st2 {
        fill: #0960bf;
      }

      .st3 {
        fill: #0a1d3a;
      }
    </style>
  </defs>
  <g>
    <circle class="st0" cx="114.134" cy="31.686" r="4.404"/>
    <circle class="st0" cx="109.219" cy="44.069" r="3"/>
    <path class="st0" d="M107.464,37.591c0,1.251-1.015,2.266-2.266,2.266s-2.266-1.015-2.266-2.266,1.015-2.266,2.266-2.266,2.266,1.015,2.266,2.266Z"/>
    <path class="st0" d="M100.554,43.128c0,1.137-.922,2.059-2.059,2.059s-2.059-.922-2.059-2.059.922-2.059,2.059-2.059,2.059.922,2.059,2.059Z"/>
    <path class="st0" d="M93.916,47.516c0,1.137-.922,2.059-2.059,2.059s-2.059-.922-2.059-2.059.922-2.059,2.059-2.059,2.059.922,2.059,2.059Z"/>
    <path class="st0" d="M86.703,49.591c0,1.137-.922,2.059-2.059,2.059s-2.059-.922-2.059-2.059.922-2.059,2.059-2.059,2.059.922,2.059,2.059Z"/>
    <circle class="st0" cx="77.669" cy="50.245" r="1.771"/>
    <path class="st0" d="M72.099,47.516c0,.978-.793,1.771-1.771,1.771s-1.771-.793-1.771-1.771.793-1.771,1.771-1.771,1.771.793,1.771,1.771Z"/>
    <path class="st0" d="M64.344,43.415c0,.978-.793,1.771-1.771,1.771s-1.771-.793-1.771-1.771.793-1.771,1.771-1.771,1.771.793,1.771,1.771Z"/>
    <path class="st0" d="M56.844,39.138c0,.855-.693,1.548-1.548,1.548s-1.548-.693-1.548-1.548.693-1.548,1.548-1.548,1.548.693,1.548,1.548Z"/>
    <path class="st0" d="M48.291,35.053c0,.855-.693,1.548-1.548,1.548s-1.548-.693-1.548-1.548.693-1.548,1.548-1.548,1.548.693,1.548,1.548Z"/>
    <circle class="st0" cx="102.198" cy="50.899" r="3"/>
    <circle class="st0" cx="94.41" cy="55.495" r="3"/>
    <circle class="st0" cx="85.887" cy="58.335" r="2.585"/>
    <circle class="st0" cx="77.142" cy="58.08" r="2.585"/>
    <circle class="st0" cx="69.291" cy="56.197" r="2.298"/>
    <circle class="st0" cx="63.099" cy="53.197" r="2.298"/>
    <circle class="st0" cx="57.642" cy="49.591" r="2.074"/>
    <circle class="st0" cx="52.185" cy="45.984" r="1.915"/>
    <circle class="st0" cx="48.291" cy="52.431" r="1.915"/>
    <circle class="st0" cx="53.748" cy="56.197" r="1.915"/>
    <circle class="st0" cx="59.716" cy="59.963" r="1.915"/>
    <circle class="st0" cx="67.546" cy="64.019" r="2.141"/>
    <circle class="st0" cx="75.897" cy="67.569" r="2.379"/>
    <circle class="st0" cx="86.703" cy="68.063" r="2.851"/>
    <circle class="st0" cx="106.219" cy="60.335" r="3.309"/>
    <circle class="st0" cx="114.144" cy="53.197" r="3.309"/>
    <circle class="st0" cx="97.41" cy="65.19" r="2.846"/>
    <circle class="st0" cx="46.44" cy="42.92" r="1.851"/>
    <circle class="st0" cx="40.887" cy="40.686" r="1.468"/>
    <circle class="st0" cx="28.036" cy="53.899" r="1.468"/>
    <circle class="st0" cx="34.049" cy="47.516" r="1.468"/>
    <circle class="st0" cx="35.517" cy="55.495" r="1.468"/>
    <circle class="st0" cx="42.836" cy="58.495" r="1.468"/>
    <circle class="st0" cx="49.083" cy="62.778" r="1.468"/>
    <circle class="st0" cx="56.844" cy="66.863" r="1.468"/>
    <circle class="st0" cx="64.344" cy="72.271" r="1.468"/>
    <circle class="st0" cx="75.044" cy="76.353" r="1.88"/>
    <circle class="st0" cx="87.64" cy="77.086" r="1.88"/>
    <circle class="st0" cx="99.198" cy="74.473" r="1.88"/>
    <circle class="st0" cx="109.527" cy="69.035" r="1.88"/>
    <circle class="st0" cx="119.171" cy="62.344" r="2.278"/>
    <path class="st0" d="M41.368,50.755c-.811,0-1.468-.657-1.468-1.468,0-.811.657-1.468,1.468-1.468s1.468.657,1.468,1.468-.657,1.468-1.468,1.468Z"/>
    <circle class="st0" cx="121.857" cy="42.665" r="4.404"/>
    <circle class="st0" cx="127.815" cy="54.282" r="4.404"/>
  </g>
  <g>
    <path class="st1" d="M11.608,117.681v-.875h4.63v.875h-4.63ZM13.463,123.367v-6.024h.921v6.024h-.921Z"/>
    <path class="st1" d="M16.509,123.367v-4.685h.921v4.685h-.921ZM19.086,119.793c-.081-.1-.184-.175-.307-.226-.124-.052-.267-.077-.429-.077-.292,0-.519.081-.68.242-.161.16-.241.384-.241.67l-.095-.902c.142-.277.327-.494.558-.65.229-.156.483-.234.76-.234.214,0,.407.03.58.093.173.062.324.152.454.272l-.601.812Z"/>
    <path class="st1" d="M21.951,123.435c-.575,0-1.006-.119-1.293-.356-.288-.237-.432-.602-.432-1.092,0-.467.132-.814.396-1.045.263-.23.658-.346,1.185-.346h1.331l.063.74h-1.391c-.237,0-.416.054-.537.16-.12.107-.18.271-.18.49,0,.237.079.413.238.527.16.114.399.172.718.172.35,0,.611-.038.785-.113.175-.075.262-.192.262-.352l.095.659c-.081.126-.182.229-.302.312-.121.081-.258.142-.413.183-.155.04-.33.061-.525.061ZM23.096,123.367v-2.97c0-.307-.082-.545-.246-.715-.163-.17-.396-.255-.697-.255-.183,0-.364.027-.543.083-.18.056-.34.137-.48.241l-.673-.46c.178-.214.411-.38.702-.499.29-.118.612-.178.968-.178.587,0,1.041.151,1.362.456.322.304.483.732.483,1.286v3.01h-.876Z"/>
    <path class="st1" d="M27.262,123.435c-.645,0-1.143-.178-1.496-.532-.354-.355-.53-.856-.53-1.503v-.771c0-.641.177-1.137.53-1.487s.852-.525,1.496-.525c.366,0,.697.064.992.194.295.129.529.313.704.555l-.663.596c-.13-.15-.283-.267-.461-.348-.177-.081-.363-.122-.56-.122-.354,0-.63.1-.825.298-.195.199-.294.479-.294.84v.771c0,.37.099.656.294.857s.471.303.825.303c.196,0,.383-.044.56-.131.178-.088.331-.211.461-.37l.663.641c-.175.234-.41.416-.706.544-.297.128-.627.191-.99.191Z"/>
    <path class="st1" d="M29.974,123.367v-6.562h.921v6.562h-.921ZM30.313,122.681l.059-1.092,2.41-2.906h1.083l-3.552,3.998ZM33.093,123.367l-1.634-2.703.591-.614,2.044,3.317h-1.001Z"/>
    <path class="st1" d="M37.434,124.144v-8.114h.92v8.114h-.92Z"/>
    <path class="st1" d="M45.251,121.138l1.927-4.332h.861v6.562h-.897v-4.915l.045.289-1.615,3.714h-.642l-1.615-3.623.045-.38v4.915h-.897v-6.562h.861l1.928,4.332Z"/>
    <path class="st1" d="M51.072,123.435c-.575,0-1.006-.119-1.293-.356-.288-.237-.432-.602-.432-1.092,0-.467.132-.814.396-1.045.263-.23.658-.346,1.185-.346h1.331l.063.74h-1.391c-.237,0-.416.054-.537.16-.12.107-.18.271-.18.49,0,.237.079.413.238.527.16.114.399.172.718.172.35,0,.611-.038.785-.113.175-.075.262-.192.262-.352l.095.659c-.081.126-.182.229-.302.312-.121.081-.258.142-.413.183-.155.04-.33.061-.525.061ZM52.217,123.367v-2.97c0-.307-.082-.545-.246-.715-.163-.17-.396-.255-.697-.255-.183,0-.364.027-.543.083-.18.056-.34.137-.48.241l-.673-.46c.178-.214.411-.38.702-.499.29-.118.612-.178.968-.178.587,0,1.041.151,1.362.456.322.304.483.732.483,1.286v3.01h-.876Z"/>
    <path class="st1" d="M54.492,123.367v-4.685h.921v4.685h-.921ZM57.336,123.367v-2.839c0-.331-.085-.587-.255-.767-.171-.181-.412-.271-.725-.271-.301,0-.533.08-.697.239-.164.16-.246.384-.246.673l-.095-.902c.145-.283.333-.501.566-.655.233-.153.491-.229.773-.229.509,0,.902.166,1.181.498.278.333.417.803.417,1.41v2.844h-.92Z"/>
    <path class="st1" d="M61.153,123.435c-.575,0-1.006-.119-1.293-.356-.288-.237-.432-.602-.432-1.092,0-.467.132-.814.396-1.045.263-.23.658-.346,1.185-.346h1.331l.063.74h-1.391c-.237,0-.416.054-.537.16-.12.107-.18.271-.18.49,0,.237.079.413.238.527.16.114.399.172.718.172.35,0,.611-.038.785-.113.175-.075.262-.192.262-.352l.095.659c-.081.126-.182.229-.302.312-.121.081-.258.142-.413.183-.155.04-.33.061-.525.061ZM62.299,123.367v-2.97c0-.307-.082-.545-.246-.715-.163-.17-.396-.255-.697-.255-.183,0-.364.027-.543.083-.18.056-.34.137-.48.241l-.673-.46c.178-.214.411-.38.702-.499.29-.118.612-.178.968-.178.587,0,1.041.151,1.362.456.322.304.483.732.483,1.286v3.01h-.876Z"/>
    <path class="st1" d="M66.058,123.448c-.518,0-.917-.166-1.198-.499-.281-.332-.422-.801-.422-1.405v-1.033c0-.608.138-1.078.413-1.41.274-.333.662-.499,1.161-.499.277,0,.53.072.761.217s.416.348.558.609l-.095.956c0-.198-.036-.368-.108-.51s-.177-.249-.313-.322c-.138-.074-.304-.111-.499-.111-.304,0-.539.095-.706.285-.167.189-.251.455-.251.798v1.021c0,.34.084.603.251.787.167.186.402.277.706.277.195,0,.361-.038.499-.114.137-.077.241-.188.313-.332s.108-.317.108-.519l.062.988c-.084.21-.229.398-.435.565-.207.167-.475.251-.806.251ZM66.143,125.271c-.352,0-.667-.065-.945-.196s-.494-.315-.647-.553l.623-.564c.12.165.264.293.431.384.167.09.343.136.526.136.352,0,.624-.098.816-.292.192-.193.289-.468.289-.823v-4.68h.92v4.544c0,.65-.175,1.153-.525,1.51s-.846.535-1.487.535Z"/>
    <path class="st1" d="M71.473,123.435c-.652,0-1.158-.182-1.516-.546-.358-.364-.537-.882-.537-1.553v-.527c0-.698.172-1.238.517-1.62.345-.383.829-.573,1.455-.573.59,0,1.046.217,1.37.649.323.434.484,1.041.484,1.823v.307h-3.158v-.739h2.283c-.027-.38-.126-.676-.296-.89s-.397-.32-.684-.32c-.346,0-.615.114-.808.343s-.289.553-.289.971v.596c0,.388.104.686.31.894.206.207.495.312.868.312.187,0,.372-.038.556-.113s.348-.181.491-.315l.605.604c-.232.223-.492.395-.781.517s-.579.183-.871.183Z"/>
    <path class="st1" d="M77.083,124.144v-8.114h.92v8.114h-.92Z"/>
    <path class="st1" d="M84.281,123.435c-.464,0-.868-.1-1.215-.3-.346-.2-.614-.482-.805-.847-.191-.363-.287-.788-.287-1.272v-1.859c0-.487.096-.912.287-1.274.19-.362.459-.644.805-.844.347-.2.751-.301,1.215-.301s.867.101,1.214.301c.346.2.614.481.805.844.191.362.287.787.287,1.274v1.859c0,.484-.096.909-.287,1.272-.19.364-.459.646-.805.847-.347.2-.751.3-1.214.3ZM84.281,122.527c.412,0,.742-.135.99-.406.248-.271.372-.628.372-1.073v-1.923c0-.448-.124-.807-.372-1.076s-.578-.404-.99-.404c-.409,0-.739.135-.989.404-.249.27-.374.628-.374,1.076v1.923c0,.445.125.803.374,1.073.25.271.58.406.989.406Z"/>
    <path class="st1" d="M87.985,125.271v-6.589h.921v6.589h-.921ZM90.084,123.435c-.292,0-.546-.07-.763-.21s-.376-.338-.479-.593l.063-.979c0,.201.036.373.108.515.072.141.177.249.313.324s.303.113.499.113c.304,0,.539-.093.706-.277.167-.186.25-.446.25-.783v-1.016c0-.343-.083-.609-.25-.799s-.402-.284-.706-.284c-.196,0-.362.036-.499.108s-.241.178-.313.315c-.072.139-.108.308-.108.506l-.095-.902c.142-.273.326-.485.555-.634.229-.149.483-.224.763-.224.503,0,.891.166,1.165.498.273.333.41.803.41,1.41v1.021c0,.599-.142,1.063-.424,1.395-.283.331-.682.496-1.196.496Z"/>
    <path class="st1" d="M92.652,119.513v-.83h2.111v.83h-2.111ZM94.231,123.39c-.385,0-.664-.106-.837-.32s-.26-.521-.26-.921v-4.828h.921v4.837c0,.111.022.199.067.262.045.063.111.095.198.095h.442v.876h-.532Z"/>
    <path class="st1" d="M96.027,117.726v-.92h.921v.92h-.921ZM96.027,123.367v-4.685h.921v4.685h-.921Z"/>
    <path class="st1" d="M98.346,123.367v-4.685h.921v4.685h-.921ZM101.144,123.367v-2.839c0-.331-.081-.587-.243-.767-.162-.181-.393-.271-.69-.271-.301,0-.533.08-.697.239-.164.16-.246.384-.246.673l-.095-.902c.145-.283.333-.501.566-.655.233-.153.491-.229.773-.229.494,0,.876.166,1.146.498.271.333.406.803.406,1.41v2.844h-.921ZM103.942,123.367v-2.839c0-.331-.085-.587-.255-.767-.17-.181-.411-.271-.724-.271-.286,0-.507.088-.664.262-.156.175-.234.422-.234.74l-.185-.902c.15-.312.346-.554.586-.722.241-.169.507-.253.799-.253.509,0,.902.166,1.181.498.278.333.417.803.417,1.41v2.844h-.921Z"/>
    <path class="st1" d="M106.261,117.726v-.92h.921v.92h-.921ZM106.261,123.367v-4.685h.921v4.685h-.921Z"/>
    <path class="st1" d="M111.812,118.683v.776l-2.252,3.055h2.374v.854h-3.488v-.795l2.311-3.037h-2.248v-.853h3.304Z"/>
    <path class="st1" d="M115.071,123.435c-.652,0-1.158-.182-1.516-.546-.358-.364-.537-.882-.537-1.553v-.527c0-.698.172-1.238.517-1.62.345-.383.829-.573,1.455-.573.59,0,1.046.217,1.37.649.323.434.484,1.041.484,1.823v.307h-3.158v-.739h2.283c-.027-.38-.126-.676-.296-.89s-.397-.32-.684-.32c-.346,0-.615.114-.808.343s-.289.553-.289.971v.596c0,.388.104.686.31.894.206.207.495.312.868.312.187,0,.372-.038.556-.113s.348-.181.491-.315l.605.604c-.232.223-.492.395-.781.517s-.579.183-.871.183Z"/>
    <path class="st1" d="M120.68,124.144v-8.114h.92v8.114h-.92Z"/>
    <path class="st1" d="M127.855,123.435c-.457,0-.857-.102-1.2-.305s-.609-.488-.799-.855c-.189-.366-.284-.795-.284-1.286v-1.8c0-.494.095-.924.284-1.291s.456-.652.799-.855.743-.305,1.2-.305c.38,0,.727.082,1.041.244.313.162.577.39.789.682s.355.633.432,1.024h-.943c-.058-.211-.153-.396-.287-.553-.134-.158-.291-.281-.472-.368-.18-.087-.366-.131-.56-.131-.402,0-.727.143-.972.427-.246.284-.368.659-.368,1.126v1.8c0,.467.122.842.368,1.124.245.283.569.424.972.424.286,0,.556-.09.809-.271.252-.181.422-.44.51-.78h.943c-.076.391-.22.732-.434,1.024s-.477.519-.79.682c-.312.162-.658.243-1.038.243Z"/>
    <path class="st1" d="M133.132,123.435c-.614,0-1.09-.178-1.427-.535-.337-.356-.505-.857-.505-1.505v-.763c0-.641.168-1.137.505-1.489.337-.352.812-.527,1.427-.527s1.089.176,1.426.527c.337.353.505.849.505,1.489v.776c0,.645-.168,1.143-.505,1.496s-.812.53-1.426.53ZM133.132,122.56c.321,0,.57-.102.746-.303.177-.201.265-.484.265-.849v-.776c0-.363-.088-.645-.265-.844-.176-.198-.425-.298-.746-.298-.319,0-.567.1-.745.298-.178.199-.267.48-.267.844v.776c0,.364.089.647.267.849s.426.303.745.303Z"/>
    <path class="st1" d="M136.371,123.367v-4.685h.921v4.685h-.921ZM139.215,123.367v-2.839c0-.331-.085-.587-.255-.767-.171-.181-.412-.271-.725-.271-.301,0-.533.08-.697.239-.164.16-.246.384-.246.673l-.095-.902c.145-.283.333-.501.566-.655.233-.153.491-.229.773-.229.509,0,.902.166,1.181.498.278.333.417.803.417,1.41v2.844h-.92Z"/>
    <path class="st1" d="M141.173,119.513v-.83h2.111v.83h-2.111ZM142.752,123.39c-.385,0-.664-.106-.837-.32s-.26-.521-.26-.921v-4.828h.921v4.837c0,.111.022.199.067.262.045.063.111.095.198.095h.442v.876h-.532Z"/>
    <path class="st1" d="M144.548,123.367v-4.685h.921v4.685h-.921ZM147.125,119.793c-.081-.1-.184-.175-.307-.226-.124-.052-.267-.077-.429-.077-.292,0-.519.081-.68.242-.161.16-.241.384-.241.67l-.095-.902c.142-.277.327-.494.558-.65.229-.156.483-.234.76-.234.214,0,.407.03.58.093.173.062.324.152.454.272l-.601.812Z"/>
    <path class="st1" d="M150.198,123.435c-.614,0-1.09-.178-1.427-.535-.337-.356-.505-.857-.505-1.505v-.763c0-.641.168-1.137.505-1.489.337-.352.812-.527,1.427-.527s1.089.176,1.426.527c.337.353.505.849.505,1.489v.776c0,.645-.168,1.143-.505,1.496s-.812.53-1.426.53ZM150.198,122.56c.321,0,.57-.102.746-.303.177-.201.265-.484.265-.849v-.776c0-.363-.088-.645-.265-.844-.176-.198-.425-.298-.746-.298-.319,0-.567.1-.745.298-.178.199-.267.48-.267.844v.776c0,.364.089.647.267.849s.426.303.745.303Z"/>
    <path class="st1" d="M154.358,116.806v5.352c0,.111.024.199.074.262.05.063.12.095.21.095h.434v.876h-.542c-.346,0-.615-.108-.808-.325s-.289-.521-.289-.916v-5.343h.921Z"/>
  </g>
  <g>
    <path class="st3" d="M15.518,89.964h2.903v20.69h-2.903v-20.69ZM16.969,107.894h11.84v2.761h-11.84v-2.761Z"/>
    <path class="st3" d="M34.316,110.114c-.911-.503-1.605-1.236-2.085-2.199-.479-.963-.719-2.123-.719-3.479v-2.405c0-1.337.24-2.483.719-3.437.479-.954,1.174-1.679,2.085-2.177s2.007-.747,3.287-.747,2.376.249,3.287.747,1.605,1.224,2.085,2.177c.479.954.719,2.099.719,3.437v2.448c0,1.347-.24,2.497-.719,3.451-.479.954-1.174,1.682-2.085,2.185s-2.007.754-3.287.754-2.376-.251-3.287-.754ZM39.959,107.154c.555-.636.832-1.527.832-2.675v-2.448c0-1.147-.277-2.035-.832-2.661-.556-.626-1.341-.939-2.355-.939s-1.8.313-2.355.939c-.555.626-.832,1.514-.832,2.661v2.448c0,1.148.277,2.04.832,2.675.556.636,1.34.953,2.355.953s1.8-.317,2.355-.953Z"/>
    <path class="st3" d="M48.105,89.95h2.903v20.705h-2.903v-20.705ZM49.372,99.142h7.058c.551,0,1.039-.133,1.466-.398s.757-.643.989-1.131c.232-.488.349-1.05.349-1.686s-.116-1.198-.349-1.687c-.232-.488-.56-.865-.982-1.131-.422-.265-.913-.398-1.473-.398h-7.058v-2.76h6.944c1.195,0,2.246.247,3.151.74.906.493,1.608,1.193,2.106,2.099.498.906.747,1.952.747,3.138s-.252,2.232-.754,3.138c-.503.906-1.208,1.605-2.113,2.099-.906.494-1.952.74-3.138.74h-6.944v-2.761ZM55.007,101.262l2.889-.654,5.294,10.046h-3.444l-4.738-9.392Z"/>
    <path class="st3" d="M67.031,109.736c-.901-.754-1.352-1.899-1.352-3.437,0-1.461.412-2.557,1.238-3.287.825-.73,2.072-1.096,3.742-1.096h4.198l.199,2.334h-4.383c-.76,0-1.326.168-1.701.505-.375.337-.562.852-.562,1.544,0,.75.249,1.305.747,1.665.498.361,1.254.541,2.27.541,1.109,0,1.938-.118,2.483-.355.545-.237.817-.607.817-1.11l.299,2.078c-.256.398-.571.726-.946.981-.374.256-.809.448-1.302.577-.493.128-1.048.192-1.665.192-1.821,0-3.183-.377-4.084-1.131ZM74.729,101.291c0-.968-.258-1.72-.775-2.255-.517-.536-1.25-.804-2.198-.804-.588,0-1.165.09-1.729.271-.565.18-1.065.432-1.502.754l-2.12-1.451c.56-.674,1.297-1.198,2.213-1.573.915-.375,1.933-.562,3.053-.562,1.224,0,2.271.216,3.145.647s1.537,1.058,1.992,1.878c.455.821.683,1.81.683,2.967v9.492h-2.761v-9.363Z"/>
  </g>
  <g>
    <path class="st2" d="M82.884,90.177h2.633l10.117,15.995-.342.37v-16.364h2.875v20.676h-2.661l-10.089-15.753.341-.37v16.123h-2.874v-20.676Z"/>
    <path class="st2" d="M103.646,109.949c-.901-.754-1.352-1.899-1.352-3.437,0-1.461.412-2.557,1.238-3.287.825-.73,2.072-1.096,3.742-1.096h4.198l.199,2.334h-4.383c-.76,0-1.326.168-1.701.505-.375.337-.562.852-.562,1.544,0,.75.249,1.305.747,1.665.498.361,1.254.541,2.27.541,1.109,0,1.938-.118,2.483-.355.545-.237.817-.607.817-1.11l.299,2.078c-.256.398-.571.726-.946.981-.374.256-.809.448-1.302.577-.493.128-1.048.192-1.665.192-1.821,0-3.183-.377-4.084-1.131ZM111.344,101.504c0-.968-.258-1.72-.775-2.255-.517-.536-1.25-.804-2.198-.804-.588,0-1.165.09-1.729.271-.565.18-1.065.432-1.502.754l-2.12-1.451c.56-.674,1.297-1.198,2.213-1.573.915-.375,1.933-.562,3.053-.562,1.224,0,2.271.216,3.145.647s1.537,1.058,1.992,1.878c.455.821.683,1.81.683,2.967v9.492h-2.761v-9.363Z"/>
    <path class="st2" d="M126.785,96.096h3.03l-5.549,14.771h-2.191l-5.55-14.771h3.03l3.615,10.544,3.614-10.544Z"/>
    <path class="st2" d="M132.661,96.096h2.903v14.771h-2.903v-14.771Z"/>
    <path class="st2" d="M144.131,102.713l1.395,2.675-3.757,5.479h-3.216l5.578-8.154ZM144.216,104.15l-5.437-8.054h3.23l4.241,6.617,5.592,8.154h-3.216l-4.411-6.717ZM145.156,101.333l3.229-5.237h3.23l-5.236,7.969-1.224-2.732Z"/>
  </g>
  <g>
    <path class="st0" d="M141.885,25.037c.189-4.586-1.423-8.975-4.539-12.36h0c-3.116-3.385-7.358-5.353-11.943-5.542-.778-.032-1.435.572-1.467,1.351-.032.778.572,1.435,1.351,1.467,7.926.327,14.108,7.043,13.781,14.969-.016.389.127.748.371,1.013s.59.438.979.454c.778.032,1.435-.572,1.467-1.351Z"/>
    <path class="st0" d="M124.275,13.757c-.778-.032-1.435.572-1.467,1.351-.032.778.572,1.435,1.351,1.467,5.207.215,9.268,4.627,9.054,9.834-.016.389.127.748.371,1.013s.59.438.979.454c.778.032,1.435-.573,1.467-1.351.278-6.762-4.996-12.489-11.756-12.768Z"/>
    <path class="st0" d="M123.293,19.502c-.455-.019-.839.335-.858.79-.019.455.335.839.79.858,3.046.126,5.421,2.706,5.296,5.751-.009.228.074.437.217.593s.345.256.573.265c.455.019.84-.335.858-.79.163-3.955-2.922-7.304-6.876-7.467Z"/>
    <path class="st0" d="M122.439,24.364c-.732.675-.78,1.821-.105,2.554,0,0,0,.001,0,.001.337.366.793.561,1.255.58s.933-.138,1.3-.475c.732-.675.78-1.821.105-2.555-.654-.711-1.844-.761-2.556-.105Z"/>
  </g>
  <g>
    <g>
      <path class="st0" d="M147.373,91.636c.134-3.245-1.007-6.352-3.212-8.747h0c-2.205-2.395-5.207-3.788-8.452-3.922-.551-.023-1.015.405-1.038.956-.023.551.405,1.015.956,1.038,5.609.231,9.984,4.984,9.753,10.593-.011.275.09.529.263.717s.418.31.693.321c.551.023,1.015-.405,1.038-.956Z"/>
      <path class="st0" d="M134.911,83.654c-.551-.023-1.015.405-1.038.956-.023.551.405,1.015.956,1.038,3.685.152,6.559,3.274,6.407,6.959-.011.275.09.529.263.717s.418.31.693.321c.551.023,1.016-.405,1.038-.956.197-4.785-3.536-8.838-8.319-9.035Z"/>
      <path class="st0" d="M134.216,87.719c-.322-.013-.594.237-.607.559-.013.322.237.594.559.607,2.155.089,3.836,1.915,3.747,4.07-.007.161.053.31.154.419s.244.181.405.188c.322.013.594-.237.607-.559.115-2.799-2.068-5.169-4.866-5.284Z"/>
      <path class="st0" d="M133.612,91.159c-.518.478-.552,1.289-.075,1.808,0,0,0,0,0,0,.239.259.561.397.888.41s.661-.098.92-.336c.518-.478.552-1.289.074-1.808-.463-.503-1.305-.538-1.809-.074Z"/>
    </g>
    <rect class="st2" x="132.661" y="90.832" width="3.097" height="3.097" rx="1.548" ry="1.548"/>
  </g>
</svg>